<?xml version="1.0" encoding="utf-8"?>
<!-- Generator: Adobe Illustrator 19.1.0, SVG Export Plug-In . SVG Version: 6.00 Build 0)  -->
<svg version="1.1" id="Vrstva_1" xmlns="http://www.w3.org/2000/svg" xmlns:xlink="http://www.w3.org/1999/xlink" x="0px" y="0px"
	 viewBox="106 -228 512 512" style="enable-background:new 106 -228 512 512;" xml:space="preserve">
<path d="M574.8-184.8c-22.9-22.9-59.9-22.9-82.8,0l-69,69l-19-19c-10-10-26.2-10-36.3,0c-10,10-10,26.2,0,36.3l19,19L174.6,132.6
	c-10.4,10.4-16.1,23.8-17,37.4c-0.4,5.6-1.8,15.9-3.4,27c-0.3,1.8-1.1,3.6-2.5,5l-15.9,15.9c-5.1,5.1-5.1,13.3,0,18.4l17.9,17.9
	c5.1,5.1,13.3,5.1,18.4,0l15.9-15.9c1.4-1.4,3.2-2.2,5-2.5c11.2-1.7,21.5-3.1,27.1-3.4c13.6-0.9,27-6.6,37.4-17L469.6,3.2l19,19
	c10,10,26.2,10,36.3,0c10-10,10-26.2,0-36.3l-63.2-63.2l49.6,38.7l63.6-63.6C597.7-124.9,597.7-162,574.8-184.8z M438.9-9.1
	L334,95.9c-5.1,5.1-13.3,5.1-18.4,0l-16.7-16.7c-5.1-5.1-13.3-5.1-18.4,0l-3.1,3.1l0,0l-75.3,75.3c-1.7,1.7-4.2,2-5.5,0.7
	c-1.3-1.3-1-3.8,0.7-5.5L319.1,30.9l0,0l79.9-79.9c5.1-5.1,13.3-5.1,18.4,0l21.5,21.5C444-22.4,444-14.1,438.9-9.1z"/>
</svg>
