<?xml version="1.0" encoding="utf-8"?>
<!-- Generator: Adobe Illustrator 16.0.0, SVG Export Plug-In . SVG Version: 6.00 Build 0)  -->
<!DOCTYPE svg PUBLIC "-//W3C//DTD SVG 1.1//EN" "http://www.w3.org/Graphics/SVG/1.1/DTD/svg11.dtd">
<svg version="1.1" id="Layer_1" xmlns="http://www.w3.org/2000/svg" xmlns:xlink="http://www.w3.org/1999/xlink" x="0px" y="0px"
	 width="512px" height="512px" viewBox="0 0 512 512" enable-background="new 0 0 512 512" xml:space="preserve">
<g>
	<path d="M88.443,336.543l38.4-23.817c-25.379-18.308-48.149-40.619-67.288-64.259c24.524-27.926,94.447-95.454,197.044-95.454
		c33.79,0,66.001,7.26,95.548,19.969l42.392-26.293c-41.833-22.926-88.859-36.019-137.94-36.019
		c-100.23,0-191.777,55.78-249.788,137.096C29.302,280.733,57.011,311.41,88.443,336.543z"/>
	<path d="M258.717,213.079c3.771,3.77,6.335,8.286,7.705,13.072l50.065-31.052c-15.04-14.252-35.338-23.011-57.693-23.011
		c-46.344,0-83.912,37.568-83.912,83.911c0,8.577,1.293,16.851,3.685,24.645l38.252-23.727c-0.336-0.308-0.669-0.62-0.995-0.945
		c-11.845-11.845-11.845-31.049,0-42.893C227.67,201.234,246.872,201.234,258.717,213.079z"/>
	<path d="M431.536,170.509l-39.02,24.202c23.014,15.057,43.671,33.509,61.272,54.218c-22.484,30.581-91.133,110.058-197.19,110.058
		c-32.112,0-63.066-8.695-91.733-23.076l-41.079,25.479c40.563,24.771,85.683,39.941,132.812,39.941
		c103.83,0,195.211-65.117,248.593-154.082C484.855,217.713,459.879,191.697,431.536,170.509z"/>
	<path d="M258.794,339.91c46.344,0,83.913-37.567,83.913-83.911c0-9.642-1.647-18.894-4.64-27.516L198.932,314.78
		C214.158,330.284,235.348,339.91,258.794,339.91z"/>
	<path d="M503.548,104.562l-1.884-3.038c-2.511-4.049-6.976-6.466-11.94-6.466c-2.849,0-5.66,0.81-8.132,2.342L13.677,387.622
		c-3.395,2.105-5.803,5.338-6.782,9.102c-0.97,3.728-0.417,7.532,1.557,10.712l1.884,3.039c2.512,4.05,6.977,6.468,11.943,6.468
		c0,0,0.001,0,0.001,0c2.847,0,5.657-0.81,8.127-2.342l467.917-290.224C505.298,120.05,507.641,111.161,503.548,104.562z"/>
</g>
</svg>
