<?xml version="1.0" encoding="utf-8"?>
<!-- Generator: Adobe Illustrator 16.0.0, SVG Export Plug-In . SVG Version: 6.00 Build 0)  -->
<!DOCTYPE svg PUBLIC "-//W3C//DTD SVG 1.1//EN" "http://www.w3.org/Graphics/SVG/1.1/DTD/svg11.dtd">
<svg version="1.1" id="Layer_1" xmlns="http://www.w3.org/2000/svg" xmlns:xlink="http://www.w3.org/1999/xlink" x="0px" y="0px"
	 width="512px" height="512px" viewBox="0 0 512 512" enable-background="new 0 0 512 512" xml:space="preserve">
<g>
	<path d="M256.598,401.331c-100.737,0-192.297-69.299-249.788-153.566c58.011-81.315,149.558-137.096,249.788-137.096
		c100.441,0,192.294,54.81,248.593,136.58C451.809,336.214,360.428,401.331,256.598,401.331 M59.555,248.467
		c48.125,59.44,119.186,110.52,197.044,110.52c106.058,0,174.706-79.477,197.19-110.058c-47.83-56.273-118.205-95.916-197.19-95.916
		C154.002,153.012,84.079,220.541,59.555,248.467 M258.794,172.088c-46.344,0-83.912,37.568-83.912,83.911
		c0,46.344,37.569,83.911,83.912,83.911c46.344,0,83.913-37.567,83.913-83.911C342.707,209.656,305.138,172.088,258.794,172.088
		 M258.717,255.971c-11.845,11.844-31.047,11.844-42.892,0c-11.845-11.845-11.845-31.049,0-42.893
		c11.845-11.845,31.047-11.845,42.892,0C270.563,224.923,270.563,244.127,258.717,255.971"/>
</g>
</svg>
