<?xml version="1.0" encoding="utf-8"?>
<!-- Generator: Adobe Illustrator 19.1.0, SVG Export Plug-In . SVG Version: 6.00 Build 0)  -->
<svg version="1.1" id="Vrstva_1" xmlns="http://www.w3.org/2000/svg" xmlns:xlink="http://www.w3.org/1999/xlink" x="0px" y="0px"
	 viewBox="106 -228 512 512" style="enable-background:new 106 -228 512 512;" xml:space="preserve">
<path d="M585.6,200.6l-96.4-96.4C512.4,70.7,524,33.2,524-8.1c0-26.8-5.2-52.5-15.6-76.9c-10.4-24.4-24.4-45.6-42.3-63.3
	c-17.7-17.7-38.8-31.8-63.3-42.1C378.5-200.8,352.8-206,326-206c-26.8,0-52.5,5.2-76.9,15.6c-24.4,10.3-45.6,24.4-63.3,42.1
	s-31.7,38.8-42.1,63.3c-10.4,24.4-15.6,50.1-15.6,76.9s5.2,52.5,15.6,76.9c10.4,24.4,24.4,45.6,42.1,63.3s38.8,31.7,63.3,42.1
	c24.4,10.4,50.1,15.6,76.9,15.6c41.2,0,78.6-11.7,112.2-34.9l96.4,96.2c6.8,7.1,15.1,10.7,25.3,10.7c9.7,0,18.2-3.6,25.3-10.7
	c7.1-7.1,10.7-15.6,10.7-25.3C596,216.1,592.5,207.6,585.6,200.6L585.6,200.6z M415.1,81c-24.7,24.7-54.3,37-88.9,37
	s-64.4-12.4-88.9-37c-24.7-24.7-37-54.3-37-88.9s12.4-64.4,37-88.9c24.7-24.7,54.3-37,88.9-37s64.4,12.4,88.9,37
	c24.7,24.7,37,54.3,37,88.9C451.9,26.7,439.6,56.4,415.1,81L415.1,81z"/>
</svg>
