<?xml version="1.0" encoding="utf-8"?>
<!-- Generator: Adobe Illustrator 19.1.0, SVG Export Plug-In . SVG Version: 6.00 Build 0)  -->
<svg version="1.1" id="Vrstva_1" xmlns="http://www.w3.org/2000/svg" xmlns:xlink="http://www.w3.org/1999/xlink" x="0px" y="0px"
	 viewBox="106 -228 512 512" style="enable-background:new 106 -228 512 512;" xml:space="preserve">
<path d="M542.2-29.2l-2.3-0.8l-9.1-21.1l1-2.2c27.7-60.7,25.7-62.5,21.1-66.9L516-155c-1.5-1.5-4.1-2.4-6.4-2.4
	c-2.1,0-8.4,0-62.7,23.8l-2.2,1l-22.4-8.7l-0.8-2.2C395.8-205,393.2-205,386.8-205h-51.9c-6.3,0-9.2,0-32.9,61.5l-0.8,2.3l-22.3,8.9
	l-2.2-0.8c-36.8-15-58.2-22.7-63.8-22.7c-2.3,0-5,1-6.4,2.4l-36.9,34.9c-4.6,4.5-6.6,6.3,22.4,65.8l1.1,2.2l-9.2,21.1l-2.2,0.8
	c-64.8,24.3-64.8,26.7-64.8,33v49.4c0,6.3,0,9,64.9,31.5l2.3,0.8l9.2,21l-1,2.1c-27.5,60.7-25.8,62.4-21.1,66.9l36.8,34.8
	c1.6,1.5,4.2,2.4,6.4,2.4c2.1,0,8.4,0,62.7-23.8l2.2-1l22.4,8.9l0.8,2.2c25.6,61.4,28.1,61.4,34.6,61.4h51.9c6.6,0,9.2,0,32.9-61.5
	l1-2.3l22.3-8.7l2.1,0.8c36.8,15,58.2,22.7,63.8,22.7c2.3,0,5-1,6.4-2.4l36.9-34.9c4.6-4.5,6.6-6.3-22.6-65.6l-1.1-2.2l9.1-21
	l2.2-0.8C607,60.6,607,58.2,607,51.9V2.5C607.1-4,607.1-6.7,542.2-29.2z M362,108.1c-46.5,0-84.2-35.9-84.2-80.1
	s37.9-80.1,84.2-80.1s84.2,35.9,84.2,80.1S408.4,108.1,362,108.1z"/>
</svg>
