<?xml version="1.0" encoding="utf-8"?>
<!-- Generator: Adobe Illustrator 19.1.0, SVG Export Plug-In . SVG Version: 6.00 Build 0)  -->
<svg version="1.1" id="Vrstva_1" xmlns="http://www.w3.org/2000/svg" xmlns:xlink="http://www.w3.org/1999/xlink" x="0px" y="0px"
	 viewBox="106 -56 512 165" style="enable-background:new 106 -56 512 165;" xml:space="preserve">
<style type="text/css">
	.st0{fill:#303030;}
	.st1{fill:#004580;}
	.st2{fill:#2FFDFE;}
	.st3{fill:#004086;}
	.st4{fill:url(#SVGID_1_);}
	.st5{fill:url(#SVGID_2_);}
	.st6{fill:url(#SVGID_3_);}
	.st7{fill:url(#SVGID_4_);}
	.st8{fill:url(#SVGID_5_);}
</style>
<g id="logo">
	<g id="font">
		<g>
			<path class="st0" d="M560.7-10.9c-1.7-1.5-4-2.3-6.8-2.3c-2.7,0-4.9,0.8-6.7,2.3c-1.8,1.5-2.6,3.6-2.6,6c0,2.5,0.9,4.5,2.6,6.1
				c1.8,1.6,4,2.4,6.7,2.4c2.8,0,5-0.8,6.8-2.4c1.7-1.6,2.6-3.6,2.6-6.1C563.3-7.3,562.4-9.3,560.7-10.9z"/>
			<rect x="545.9" y="9.3" class="st0" width="16.1" height="54.5"/>
		</g>
		<path class="st0" d="M603,51.4c-0.7,0.3-1.6,0.5-2.5,0.8c-0.9,0.2-1.8,0.3-2.7,0.3c-2.1,0-3.8-0.7-5.1-2c-1.3-1.4-1.9-3.6-1.9-6.6
			V22h13.1V9.3h-13.1V-5.2h-13.4l-1.9,14.5l-8.3,0.7v12h7.5V44c0,3.1,0.3,6,1,8.6c0.7,2.6,1.8,4.8,3.3,6.6c1.5,1.8,3.4,3.3,5.8,4.3
			c2.4,1,5.3,1.5,8.6,1.5c2.6,0,4.9-0.2,6.9-0.7c2-0.4,3.7-0.9,5.2-1.3L603,51.4z"/>
		<path class="st0" d="M330.8,25.9v-0.4c2.1-0.5,3.8-1.3,5.4-2.4c1.5-1.1,2.8-2.3,3.7-3.7c1-1.4,1.7-2.9,2.1-4.5
			c0.5-1.6,0.7-3.2,0.7-4.8c0-3.4-0.7-6.3-2-8.6c-1.4-2.3-3.2-4.1-5.6-5.5c-2.4-1.4-5.2-2.4-8.3-2.9c-3.2-0.5-6.6-0.8-10.4-0.8H292
			v71.6h26.6c3.9,0,7.5-0.4,10.9-1.3c3.4-0.8,6.3-2.1,8.8-3.8c2.5-1.7,4.5-3.9,5.9-6.5c1.4-2.6,2.1-5.8,2.1-9.4
			c0-4.8-1.3-8.6-3.9-11.3C339.8,28.7,336,26.9,330.8,25.9z M308.1,4.7h7.7c3.8,0,6.6,0.6,8.5,1.8c1.8,1.2,2.7,3.1,2.7,5.8
			c0,2.7-0.9,4.9-2.7,6.4c-1.8,1.6-4.7,2.4-8.6,2.4h-7.6V4.7z M317.2,51.3h-9.1V32.5h9.1c4.5,0,7.8,0.7,10,2.1
			c2.2,1.4,3.3,3.7,3.3,6.9C330.5,48,326.1,51.3,317.2,51.3z"/>
		<path class="st0" d="M471,15.5c-1.9-2.3-4.4-4.2-7.2-5.5c-2.9-1.3-6.3-2-10.2-2c-3.3,0-6.5,0.7-9.6,2c-3.1,1.3-5.8,3.2-8.2,5.7
			c-2.4,2.5-4.3,5.5-5.8,9c-1.5,3.6-2.2,7.5-2.2,11.9c0,4.5,0.7,8.6,2.1,12.1c1.4,3.5,3.3,6.5,5.8,9c2.5,2.5,5.4,4.3,8.8,5.6
			c3.4,1.3,7,1.9,10.9,1.9c3.3,0,6.6-0.5,10-1.6c3.4-1.1,6.5-2.6,9.3-4.5l-5.4-9.8c-4,2.4-7.9,3.6-11.8,3.6c-3.7,0-6.8-0.9-9.3-2.8
			c-2.5-1.9-4.2-4.9-4.9-9.1h32.6c0.1-0.7,0.3-1.6,0.4-2.8c0.1-1.2,0.2-2.5,0.2-4c0-3.7-0.5-7.2-1.4-10.4
			C474.4,20.6,473,17.8,471,15.5z M443.4,31c0.6-3.7,1.8-6.4,3.8-8.1c1.9-1.7,4.2-2.6,6.8-2.6c3.3,0,5.6,1,7,3
			c1.4,2,2.1,4.5,2.1,7.7H443.4z"/>
		<polygon class="st0" points="515.9,20.8 537.5,-7.8 519.7,-7.8 498.4,21.5 498,21.5 498,-7.8 481.8,-7.8 481.8,63.8 498,63.8 
			498,44.6 506.3,33.6 523.8,63.8 541.5,63.8 		"/>
		<path class="st0" d="M407.4,45.4c-1.6,2.1-3.1,3.7-4.5,4.6c-1.4,1-3.1,1.4-5.2,1.4c-2.3,0-4.1-0.7-5.2-2.2
			c-1.1-1.5-1.6-4.2-1.6-8.1V9.3h-16.1v33.8c0,6.9,1.3,12.3,4,16.1c2.7,3.9,7,5.8,12.9,5.8c3.7,0,6.9-0.8,9.6-2.4
			c2.7-1.6,5.2-3.8,7.5-6.5h0.3l1.2,7.6h13.2V9.3h-16.1V45.4z"/>
		<path class="st0" d="M370.4,52.1c-0.3,0-0.6,0-0.9,0c-0.7,0-1.3-0.3-1.9-1c-0.6-0.7-0.9-1.8-0.9-3.5v-60.7h-16.1v60.1
			c0,2.8,0.3,5.3,0.8,7.5c0.5,2.2,1.3,4.1,2.5,5.7c1.1,1.6,2.7,2.8,4.6,3.7c1.9,0.9,4.2,1.3,7,1.3c1.8,0,3.4-0.1,4.8-0.4
			c1.4-0.3,2.5-0.6,3.3-0.9l-2-12C371,52,370.7,52.1,370.4,52.1z"/>
	</g>
	<g id="pictogram">
		<polygon class="st1" points="118.5,-7.8 150.9,10.1 215.8,10.1 248.2,-7.8 		"/>
		<polygon class="st2" points="215.8,45.9 150.9,45.9 118.5,63.8 248.2,63.8 		"/>
		<rect x="118.5" y="-7.8" class="st3" width="32.4" height="71.6"/>
		<rect x="215.8" y="-7.8" class="st3" width="32.4" height="71.6"/>
		
			<linearGradient id="SVGID_1_" gradientUnits="userSpaceOnUse" x1="185.6199" y1="134.9656" x2="185.6199" y2="93.4113" gradientTransform="matrix(0.8618 0 0 0.8618 23.394 -52.5044)">
			<stop  offset="0" style="stop-color:#2EF7FA"/>
			<stop  offset="1" style="stop-color:#F0F0FA"/>
		</linearGradient>
		<polygon class="st4" points="150.9,45.9 183.4,63.8 215.8,45.9 183.4,28 		"/>
		
			<linearGradient id="SVGID_2_" gradientUnits="userSpaceOnUse" x1="185.6199" y1="176.52" x2="185.6199" y2="114.1885" gradientTransform="matrix(0.8618 0 0 0.8618 23.394 -52.5044)">
			<stop  offset="0.1" style="stop-color:#2FFDFE"/>
			<stop  offset="1" style="stop-color:#0C6FC4"/>
		</linearGradient>
		<polygon class="st5" points="183.4,63.8 150.9,45.9 118.5,63.8 183.4,99.6 248.2,63.8 215.8,45.9 		"/>
		
			<linearGradient id="SVGID_3_" gradientUnits="userSpaceOnUse" x1="160.8602" y1="16.4964" x2="210.3795" y2="87.2174" gradientTransform="matrix(0.8618 0 0 0.8618 23.394 -52.5044)">
			<stop  offset="0" style="stop-color:#0670BD"/>
			<stop  offset="1" style="stop-color:#41C4E8"/>
		</linearGradient>
		<polygon class="st6" points="183.4,-7.8 215.8,10.1 248.2,-7.8 183.4,-43.6 118.5,-7.8 150.9,10.1 		"/>
		
			<linearGradient id="SVGID_4_" gradientUnits="userSpaceOnUse" x1="110.3602" y1="41.4683" x2="185.6199" y2="41.4683" gradientTransform="matrix(0.8618 0 0 0.8618 23.394 -52.5044)">
			<stop  offset="0.5" style="stop-color:#000000;stop-opacity:0"/>
			<stop  offset="1" style="stop-color:#000000;stop-opacity:0.35"/>
		</linearGradient>
		<polygon class="st7" points="183.4,-43.6 118.5,-7.8 150.9,10.1 183.4,-7.8 		"/>
		
			<linearGradient id="SVGID_5_" gradientUnits="userSpaceOnUse" x1="173.2401" y1="54.9538" x2="197.9998" y2="90.3143" gradientTransform="matrix(0.8618 0 0 0.8618 23.394 -52.5044)">
			<stop  offset="0" style="stop-color:#001952"/>
			<stop  offset="1" style="stop-color:#0074B0"/>
		</linearGradient>
		<polygon class="st8" points="150.9,10.1 183.4,28 215.8,10.1 183.4,-7.8 		"/>
	</g>
</g>
</svg>
